# xmcd
#
# Track frame offsets:
#	150
#	12580
#	28047
#	39980
#	50565
#	62912
#	79365
#	93372
#	107665
#	120152
#
# Disc length: 1791 seconds
#
# Revision: 0
# Processed by: cddbd v1.4PL0 Copyright (c) Steve Scherf et al.
# Submitted via: EasyCDDAExtractor 4.5.0.2
#
DISCID=7b06fd0a
DTITLE=conway twitty and loretta lynn - two's a party
DYEAR=1990
DGENRE=Country
TTITLE0=two's a party
TTITLE1=the state of our union
TTITLE2=lovin what your lovin does to me 
TTITLE3=i'd rather have what we had
TTITLE4=oh honey-oh babe
TTITLE5=right in the palm of your hand
TTITLE6=silent partner
TTITLE7=i still believe in waltzes
TTITLE8=we've been strong long enough
TTITLE9=if i ever had to say goodbye to you
EXTD=
EXTT0=
EXTT1=
EXTT2=
EXTT3=
EXTT4=
EXTT5=
EXTT6=
EXTT7=
EXTT8=
EXTT9=
PLAYORDER=
